<svg width="24" height="24" viewBox="0 0 24 24" fill="none" xmlns="http://www.w3.org/2000/svg">
  <!-- Sticker body with peeled corner -->
  <path d="M5.2 3.2h10.1c.7 0 1.25.3 1.7.75L19.8 7c.45.45.75 1 .75 1.7v10.1c0 1.55-1.2 2.8-2.75 2.8H5.2C3.65 21.6 2.4 20.35 2.4 18.8V6C2.4 4.45 3.65 3.2 5.2 3.2Z" stroke="black" stroke-width="1.7" stroke-linejoin="round"/>
  <path d="M15.1 3.35V6.9c0 .95.8 1.75 1.75 1.75h3.5" stroke="black" stroke-width="1.7" stroke-linejoin="round"/>
  <!-- Smile -->
  <circle cx="9.1" cy="12.1" r="1.05" fill="black"/>
  <circle cx="14.9" cy="12.1" r="1.05" fill="black"/>
  <path d="M9.2 15.35c.85 1.05 1.95 1.55 3.8 1.55s2.95-.5 3.8-1.55" stroke="black" stroke-width="1.7" stroke-linecap="round"/>
</svg>
